<?xml version="1.0" encoding="UTF-8"?>
<svg width="34px" height="32px" viewBox="0 0 34 32" version="1.1" xmlns="http://www.w3.org/2000/svg" xmlns:xlink="http://www.w3.org/1999/xlink">
    <!-- Generator: Sketch 52.2 (67145) - http://www.bohemiancoding.com/sketch -->
    <title>Artboard</title>
    <desc>Created with Sketch.</desc>
    <g id="Page-1" stroke="none" stroke-width="1" fill="none" fill-rule="evenodd">
        <g id="Artboard">
            <g id="book">
                <path d="M2.9,21.8 C2.9,22.5 3,23.1 3.3,23.7 C3.6,24.3 4,24.8 4.6,25 C4.9,25.1 5.2,25.2 5.5,25.3 C6.5,25.6 7.5,25.9 8.5,26.2 C10,26.6 11.4,27.1 12.9,27.5 C14.1,27.9 15.3,28.2 16.5,28.6 C17.3,28.8 18,29 18.8,29.3 C19.1,29.4 19.5,29.3 19.7,29 C20.3,28.3 20.8,27.7 21.3,27 C22,26.1 22.7,25.3 23.4,24.4 C24.1,23.6 24.8,22.8 25.4,21.9 C26.1,21.1 26.8,20.3 27.4,19.4 C28.1,18.6 28.8,17.8 29.4,16.9 C29.8,16.5 30.1,16 30.5,15.5 C30.7,15.3 30.7,14.9 30.7,14.7 C30.6,14.2 30.6,13.6 30.6,13.1 C30.7,12.5 30.8,12 31,11.5 C31.2,11 31.6,10.7 32.1,10.7 C32.7,10.7 33.3,11.1 33.4,11.7 C33.5,12 33.4,12.3 33.3,12.5 C33,13.3 33,14 33.3,14.8 C33.5,15.4 33.4,15.9 33,16.4 C32.5,17 32,17.6 31.4,18.3 C30.8,19 30.2,19.7 29.7,20.4 C29.1,21.1 28.6,21.8 28,22.5 C27.5,23.1 27,23.6 26.6,24.2 C26.1,24.8 25.5,25.5 25,26.1 C24.4,26.8 23.8,27.5 23.3,28.2 C22.8,28.8 22.4,29.3 21.9,29.9 C21.6,30.3 21.2,30.7 20.9,31.1 C20.4,31.7 19.5,32 18.7,31.8 C17.6,31.5 16.4,31.1 15.3,30.8 C13.7,30.3 12.1,29.9 10.5,29.4 C9.2,29 7.8,28.6 6.5,28.2 C5.8,28 5.1,27.8 4.4,27.6 C3.9,27.4 3,27 2.6,26.7 C1.8,26.1 1.3,25.4 0.8,24.5 C0.5,23.9 0.3,23.2 0.2,22.5 C0.1,21.5 0.2,20.5 0.5,19.5 C0.6,19.1 0.7,18.7 0.9,18.3 C1.1,17.7 1.4,17.1 1.7,16.6 C1.9,16.3 2.1,16.1 2.4,15.8 C2.9,15.3 3.3,14.8 3.8,14.2 C4.2,13.7 4.6,13.3 5,12.8 C5.5,12.3 5.9,11.8 6.4,11.2 C6.8,10.7 7.2,10.3 7.6,9.8 C8.1,9.3 8.5,8.8 9,8.3 C9.4,7.8 9.8,7.4 10.2,6.9 C10.7,6.4 11.1,5.9 11.6,5.4 C12,4.9 12.4,4.5 12.8,4 C13.3,3.5 13.7,3 14.2,2.4 C14.6,2 14.9,1.6 15.3,1.2 C15.6,0.9 15.9,0.8 16.3,0.8 C16.6,0.8 16.9,0.9 17.2,0.9 C18.2,1.1 19.1,1.3 20.1,1.5 C21.4,1.8 22.7,2.1 24,2.4 C25.3,2.7 26.6,3 28,3.3 C29.2,3.6 30.3,3.8 31.5,4.1 C32,4.2 32.4,4.3 32.9,4.4 C33.5,4.5 34,5.1 34,5.8 C34,6.1 33.9,6.4 33.7,6.7 C33.1,7.4 32.4,8.2 31.8,8.9 C31.3,9.5 30.7,10.1 30.2,10.8 C29.6,11.5 29,12.2 28.3,12.9 C27.8,13.5 27.2,14.1 26.7,14.8 C26.1,15.5 25.5,16.2 24.8,16.9 C24.3,17.5 23.7,18.1 23.2,18.8 C22.7,19.4 22.1,20 21.6,20.6 C21.1,21.1 20.7,21.6 20.2,22.2 C20.2,22.2 20.2,22.2 20.2,22.2 C19.7,22.8 18.8,23.1 18,22.9 C16.9,22.6 15.8,22.3 14.7,22 C13.5,21.7 12.4,21.3 11.2,21 C9.4,20.5 7.6,20 5.8,19.4 C5.6,19.3 5.3,19.2 5.1,19.2 C4.5,19.1 4,19.1 3.5,19.6 C3.3,19.9 3.1,20.2 3.1,20.5 C3,21.1 2.9,21.5 2.9,21.8 C2.9,21.8 2.9,21.8 2.9,21.8 Z M24.3,11.2 C24.5,11.2 24.6,11.2 24.8,11.1 C25.1,11 25.3,10.9 25.5,10.7 C25.7,10.5 25.9,10.2 26.1,10 C26.2,9.8 26.4,9.7 26.5,9.5 C26.7,9.3 26.6,9 26.4,8.9 C26.3,8.8 26.2,8.8 26.1,8.8 C25.8,8.7 25.6,8.7 25.3,8.6 C23.9,8.3 22.5,7.9 21.1,7.6 C19.7,7.2 18.2,6.9 16.8,6.5 C16.4,6.4 16,6.3 15.6,6.4 C15.3,6.5 15.1,6.5 14.9,6.7 C14.5,7.1 14.2,7.5 13.8,8 C13.6,8.2 13.7,8.4 13.8,8.6 C13.9,8.7 14.1,8.8 14.2,8.8 C15,9 15.7,9.2 16.5,9.4 C17.5,9.6 18.4,9.9 19.4,10.1 C20.7,10.4 22,10.7 23.3,11.1 C23.7,11.1 24,11.1 24.3,11.2 Z" id="Shape" fill="#000000" fill-rule="nonzero"></path>
                <path d="M24.3,11.2 C24.1,11.1 23.8,11.1 23.5,11 C22.2,10.7 20.9,10.4 19.6,10 C18.6,9.8 17.7,9.5 16.7,9.3 C15.9,9.1 15.2,8.9 14.4,8.7 C14.3,8.7 14.1,8.6 14,8.5 C13.8,8.3 13.8,8.1 14,7.9 C14.4,7.5 14.7,7 15.1,6.6 C15.3,6.4 15.5,6.3 15.8,6.3 C16.2,6.2 16.6,6.3 17,6.4 C18.4,6.8 19.9,7.1 21.3,7.5 C22.7,7.8 24.1,8.2 25.5,8.5 C25.8,8.6 26,8.6 26.3,8.7 C26.4,8.7 26.5,8.8 26.6,8.8 C26.8,9 26.9,9.2 26.7,9.4 C26.6,9.6 26.4,9.7 26.3,9.9 C26.1,10.1 25.9,10.4 25.7,10.6 C25.5,10.8 25.3,11 25,11 C24.6,11.2 24.5,11.2 24.3,11.2 Z" id="Path" fill="#E30613"></path>
            </g>
        </g>
    </g>
</svg>