<?xml version="1.0" encoding="UTF-8"?>
<svg width="34px" height="32px" viewBox="0 0 34 32" version="1.1" xmlns="http://www.w3.org/2000/svg" xmlns:xlink="http://www.w3.org/1999/xlink">
    <!-- Generator: Sketch 52.2 (67145) - http://www.bohemiancoding.com/sketch -->
    <title>Artboard</title>
    <desc>Created with Sketch.</desc>
    <g id="Page-1" stroke="none" stroke-width="1" fill="none" fill-rule="evenodd">
        <g id="Artboard">
            <g id="calendar" transform="translate(1.000000, 0.000000)">
                <g id="Group">
                    <path d="M0.564705882,28.4235294 C0.564705882,20.9882353 0.564705882,13.6470588 0.564705882,6.21176471 C0.564705882,6.21176471 0.564705882,6.11764706 0.564705882,6.11764706 C0.564705882,5.74117647 0.658823529,5.36470588 0.847058824,4.98823529 C1.50588235,3.57647059 2.63529412,2.82352941 4.23529412,2.82352941 C4.98823529,2.82352941 5.74117647,2.82352941 6.49411765,2.82352941 C6.49411765,2.82352941 6.58823529,2.82352941 6.58823529,2.82352941 C6.58823529,2.91764706 6.58823529,2.91764706 6.58823529,2.91764706 C6.58823529,3.67058824 6.58823529,4.42352941 6.58823529,5.27058824 C6.58823529,5.92941176 6.77647059,6.4 7.24705882,6.87058824 C8,7.71764706 9.22352941,7.90588235 10.2588235,7.24705882 C11.0117647,6.77647059 11.3882353,6.21176471 11.3882353,5.36470588 C11.3882353,4.51764706 11.3882353,3.76470588 11.3882353,2.91764706 C11.3882353,2.91764706 11.3882353,2.82352941 11.3882353,2.82352941 C14.5882353,2.82352941 17.7882353,2.82352941 21.0823529,2.82352941 C21.0823529,2.82352941 21.0823529,2.91764706 21.0823529,2.91764706 C21.0823529,3.67058824 21.0823529,4.42352941 21.0823529,5.17647059 C21.0823529,5.36470588 21.0823529,5.55294118 21.0823529,5.64705882 C21.2705882,6.77647059 22.2117647,7.52941176 23.3411765,7.62352941 C24.0941176,7.62352941 24.6588235,7.43529412 25.1294118,6.87058824 C25.6,6.4 25.7882353,5.83529412 25.7882353,5.17647059 C25.7882353,4.42352941 25.7882353,3.67058824 25.7882353,2.91764706 C25.7882353,2.91764706 25.7882353,2.82352941 25.7882353,2.82352941 C25.7882353,2.82352941 25.8823529,2.82352941 25.8823529,2.82352941 C26.6352941,2.82352941 27.4823529,2.82352941 28.2352941,2.82352941 C28.8941176,2.82352941 29.5529412,3.01176471 30.1176471,3.38823529 C31.2470588,4.14117647 31.8117647,5.17647059 31.8117647,6.49411765 C31.8117647,13.6470588 31.8117647,20.8941176 31.8117647,28.0470588 C31.8117647,28.3294118 31.8117647,28.5176471 31.7176471,28.8 C31.3411765,30.4941176 29.9294118,31.7176471 28.1411765,31.7176471 C20.1411765,31.7176471 12.0470588,31.7176471 4.04705882,31.7176471 C3.67058824,31.7176471 3.29411765,31.6235294 2.91764706,31.5294118 C1.69411765,31.0588235 0.847058824,30.2117647 0.470588235,28.8941176 C0.564705882,28.8 0.564705882,28.6117647 0.564705882,28.4235294 Z" id="Path" fill="#000000"></path>
                    <path d="M3.2,11.3882353 C3.2,11.3882353 3.2,11.4823529 3.2,11.4823529 C3.2,16.9411765 3.2,22.4 3.2,27.8588235 C3.2,28.6117647 3.67058824,29.0823529 4.42352941,29.0823529 C12.2352941,29.0823529 20.1411765,29.0823529 27.9529412,29.0823529 C28.0470588,29.0823529 28.1411765,29.0823529 28.2352941,29.0823529 C28.8,28.9882353 29.1764706,28.5176471 29.1764706,27.8588235 C29.1764706,22.4 29.1764706,16.9411765 29.1764706,11.4823529 C29.1764706,11.4823529 29.1764706,11.3882353 29.1764706,11.3882353 C20.5176471,11.3882353 11.8588235,11.3882353 3.2,11.3882353 Z" id="Path" fill="#FFFFFF"></path>
                    <path d="M24.6588235,3.48235294 C24.6588235,4.04705882 24.6588235,4.70588235 24.6588235,5.27058824 C24.6588235,5.92941176 24.0941176,6.49411765 23.4352941,6.49411765 C22.7764706,6.49411765 22.2117647,5.92941176 22.2117647,5.27058824 C22.2117647,4.04705882 22.2117647,2.82352941 22.2117647,1.69411765 C22.2117647,1.03529412 22.6823529,0.564705882 23.3411765,0.470588235 C24,0.470588235 24.5647059,0.941176471 24.6588235,1.50588235 C24.6588235,1.50588235 24.6588235,1.6 24.6588235,1.6 C24.6588235,2.25882353 24.6588235,2.91764706 24.6588235,3.48235294 Z" id="Path" fill="#000000"></path>
                    <path d="M7.81176471,3.48235294 C7.81176471,2.91764706 7.81176471,2.25882353 7.81176471,1.69411765 C7.81176471,1.03529412 8.37647059,0.470588235 9.03529412,0.470588235 C9.69411765,0.470588235 10.2588235,1.03529412 10.2588235,1.69411765 C10.2588235,2.91764706 10.2588235,4.14117647 10.2588235,5.36470588 C10.2588235,6.02352941 9.78823529,6.49411765 9.12941176,6.58823529 C8.47058824,6.58823529 7.90588235,6.21176471 7.81176471,5.55294118 C7.81176471,5.45882353 7.81176471,5.36470588 7.81176471,5.36470588 C7.81176471,4.61176471 7.81176471,4.04705882 7.81176471,3.48235294 Z" id="Path" fill="#000000"></path>
                </g>
                <path d="M20.0470588,19.2 C20.8941176,19.9529412 21.2705882,20.8941176 21.2705882,22.0235294 C21.2705882,22.7764706 21.0823529,23.5294118 20.7058824,24.1882353 C20.3294118,24.8470588 19.6705882,25.3176471 18.9176471,25.6941176 C18.0705882,26.0705882 17.1294118,26.2588235 15.9058824,26.2588235 C15.0588235,26.2588235 14.1176471,26.1647059 13.2705882,25.9764706 C12.4235294,25.7882353 11.6705882,25.5058824 11.1058824,25.0352941 L12.3294118,22.4 C12.8,22.7764706 13.3647059,22.9647059 13.9294118,23.1529412 C14.4941176,23.3411765 15.1529412,23.4352941 15.7176471,23.4352941 C16.2823529,23.4352941 16.8470588,23.3411765 17.1294118,23.0588235 C17.4117647,22.7764706 17.6941176,22.4941176 17.6941176,22.1176471 C17.6941176,21.7411765 17.5058824,21.3647059 17.1294118,21.1764706 C16.7529412,20.9882353 16.1882353,20.8941176 15.2470588,20.8941176 L11.8588235,20.8941176 L12.5176471,13.6470588 L20.4235294,13.6470588 L20.4235294,16.3764706 L15.4352941,16.3764706 L15.2470588,18.1647059 L16.0941176,18.1647059 C17.9764706,18.0705882 19.2941176,18.4470588 20.0470588,19.2 Z" id="Path" fill="#E30613"></path>
            </g>
        </g>
    </g>
</svg>