<?xml version="1.0" encoding="UTF-8"?>
<svg width="34px" height="31px" viewBox="0 0 34 31" version="1.1" xmlns="http://www.w3.org/2000/svg" xmlns:xlink="http://www.w3.org/1999/xlink">
    <!-- Generator: Sketch 52.2 (67145) - http://www.bohemiancoding.com/sketch -->
    <title>Artboard</title>
    <desc>Created with Sketch.</desc>
    <g id="Page-1" stroke="none" stroke-width="1" fill="none" fill-rule="evenodd">
        <g id="Artboard">
            <g id="camera" transform="translate(0.000000, 2.000000)">
                <g id="Group">
                    <path d="M0.3,26 C0.3,20.4 0.3,14.8 0.3,9.2 C0.8,7.6 1.8,6.7 3.5,6.5 C4.7,6.4 5.8,6.1 7,5.9 C7.4,5.8 7.6,5.6 7.7,5.3 C8.1,4.3 8.5,3.3 8.9,2.3 C9.5,0.9 10.5,0.2 12,0.2 C15.4,0.2 18.8,0.2 22.2,0.2 C23.7,0.2 24.7,0.9 25.3,2.3 C25.7,3.3 26.1,4.4 26.5,5.4 C26.6,5.6 26.9,5.9 27.1,5.9 C28.3,6.1 29.4,6.4 30.6,6.5 C32.3,6.7 33.4,7.6 33.8,9.2 C33.8,14.8 33.8,20.4 33.8,26 C33.4,27.4 32.5,28.2 31.2,28.6 C21.7,28.6 12.3,28.6 2.8,28.6 C1.6,28.2 0.7,27.4 0.3,26 Z M17.1,26.5 C21.6,26.5 26,26.5 30.5,26.5 C31.5,26.5 31.9,26.1 31.9,25.1 C31.9,20.1 31.9,15 31.9,10 C31.9,9.1 31.7,8.8 30.8,8.6 C29.2,8.3 27.6,8 26,7.8 C25.5,7.7 25.3,7.6 25.1,7.1 C24.6,5.8 24.1,4.5 23.6,3.2 C23.4,2.6 22.9,2.3 22.2,2.3 C18.9,2.3 15.5,2.3 12.2,2.3 C11.5,2.3 11.1,2.6 10.8,3.2 C10.3,4.5 9.8,5.7 9.3,7 C9.1,7.5 8.8,7.7 8.3,7.8 C6.8,8 5.2,8.3 3.7,8.6 C2.6,8.8 2.4,9.1 2.4,10.1 C2.4,15.1 2.4,20.1 2.4,25 C2.4,26.2 2.7,26.5 3.9,26.5 C8.3,26.5 12.7,26.5 17.1,26.5 Z" id="Shape" fill="#000000" fill-rule="nonzero"></path>
                    <path d="M17.1,26.5 C12.7,26.5 8.3,26.5 4,26.5 C2.8,26.5 2.5,26.2 2.5,25 C2.5,20 2.5,15 2.5,10.1 C2.5,9.1 2.7,8.8 3.8,8.6 C5.3,8.3 6.9,8.1 8.4,7.8 C9,7.7 9.2,7.5 9.4,7 C9.9,5.7 10.4,4.5 10.9,3.2 C11.1,2.6 11.6,2.3 12.3,2.3 C15.6,2.3 19,2.3 22.3,2.3 C23,2.3 23.4,2.6 23.7,3.2 C24.2,4.5 24.7,5.8 25.2,7.1 C25.4,7.6 25.6,7.7 26.1,7.8 C27.7,8 29.3,8.3 30.9,8.6 C31.8,8.8 32,9.1 32,10 C32,15 32,20.1 32,25.1 C32,26.1 31.6,26.5 30.6,26.5 C26,26.5 21.5,26.5 17.1,26.5 Z M17.1,24.4 C21.8,24.4 25.5,20.7 25.5,16 C25.5,11.4 21.8,7.7 17.1,7.7 C12.5,7.7 8.7,11.4 8.7,16 C8.7,20.6 12.5,24.4 17.1,24.4 Z" id="Shape" fill="#000000" fill-rule="nonzero"></path>
                    <path d="M17.1,24.4 C12.4,24.4 8.7,20.7 8.7,16 C8.7,11.4 12.5,7.6 17.1,7.7 C21.7,7.7 25.5,11.4 25.5,16 C25.5,20.6 21.8,24.4 17.1,24.4 Z M17.1,22.3 C20.6,22.3 23.5,19.5 23.5,16 C23.5,12.5 20.7,9.7 17.2,9.7 C13.7,9.7 10.8,12.5 10.8,16 C10.8,19.5 13.6,22.3 17.1,22.3 Z" id="Shape" fill="#FFFFFF" fill-rule="nonzero"></path>
                    <path d="M17.1,22.3 C13.6,22.3 10.8,19.4 10.8,16 C10.8,12.5 13.7,9.7 17.2,9.7 C20.7,9.7 23.5,12.6 23.5,16 C23.4,19.5 20.6,22.3 17.1,22.3 Z" id="Path" fill="#000000"></path>
                </g>
                <path d="M13.6,16.2 C13.6,14.2 15.3,12.6 17.3,12.6" id="Path" stroke="#FFFFFF" stroke-width="2" stroke-linecap="round"></path>
                <circle id="Oval" fill="#E30613" cx="5.3" cy="10.7" r="1.9"></circle>
            </g>
        </g>
    </g>
</svg>