<?xml version="1.0" encoding="UTF-8"?>
<svg width="34px" height="32px" viewBox="0 0 34 32" version="1.1" xmlns="http://www.w3.org/2000/svg" xmlns:xlink="http://www.w3.org/1999/xlink">
    <!-- Generator: Sketch 52.2 (67145) - http://www.bohemiancoding.com/sketch -->
    <title>Artboard</title>
    <desc>Created with Sketch.</desc>
    <g id="Page-1" stroke="none" stroke-width="1" fill="none" fill-rule="evenodd">
        <g id="Artboard">
            <g id="lamp" transform="translate(2.000000, 3.000000)">
                <path d="M12.8,24.352381 C12.4190476,24.047619 12.0380952,23.8190476 11.7333333,23.5142857 C11.2761905,23.0571429 11.047619,22.447619 10.9714286,21.6857143 C10.9714286,20.847619 10.9714286,19.9333333 10.8952381,19.0952381 C10.8190476,17.7238095 10.3619048,16.5047619 9.52380952,15.4380952 C8.91428571,14.6 8.22857143,13.6857143 7.84761905,12.6952381 C6.01904762,8.42857143 8.68571429,3.47619048 13.3333333,2.63809524 C17.2952381,1.95238095 21.1047619,4.61904762 21.7904762,8.58095238 C22.0952381,10.5619048 21.7142857,12.3904762 20.5714286,14.0666667 C20.2666667,14.5238095 19.9619048,14.9809524 19.6571429,15.3619048 C18.7428571,16.5809524 18.2857143,17.952381 18.2857143,19.552381 C18.2857143,20.2380952 18.2857143,20.9238095 18.2857143,21.6095238 C18.2857143,22.752381 17.6761905,23.5904762 16.6857143,24.1238095 C16.5333333,24.2 16.4571429,24.2 16.4571429,24.4285714 C16.4571429,25.4190476 15.6190476,26.2571429 14.6285714,26.1809524 C13.6380952,26.1809524 12.8761905,25.3428571 12.8761905,24.352381 C12.8,24.352381 12.8,24.352381 12.8,24.352381 Z" id="Path" fill="#000000"></path>
                <path d="M16.6095238,18.9428571 C16.8380952,18.1047619 16.9904762,17.3428571 17.1428571,16.5809524 C17.5238095,15.2857143 18.2095238,14.2190476 19.047619,13.2285714 C19.9619048,12.0095238 20.2666667,10.5619048 20.1142857,9.03809524 C19.7333333,6.06666667 16.8380952,3.93333333 13.8666667,4.46666667 C10.8190476,4.92380952 8.76190476,7.8952381 9.2952381,10.9428571 C9.44761905,11.8571429 9.9047619,12.6952381 10.4380952,13.3809524 C11.1238095,14.2952381 11.7333333,15.2095238 12.1142857,16.2761905 C12.4190476,17.1142857 12.5714286,18.0285714 12.8,18.9428571 C14.0190476,18.9428571 15.3142857,18.9428571 16.6095238,18.9428571 Z" id="Path" fill="#000000"></path>
                <path d="M12.8,20.7714286 C12.8,21.0761905 12.8,21.3809524 12.8,21.6857143 C12.8,22.2190476 13.1809524,22.6 13.7142857,22.6 C14.3238095,22.6 14.9333333,22.6 15.5428571,22.6 C16,22.6 16.3809524,22.2952381 16.3809524,21.8380952 C16.4571429,21.4571429 16.3809524,21.152381 16.3809524,20.7714286 C15.2380952,20.7714286 14.0952381,20.7714286 12.8,20.7714286 Z" id="Path" fill="#000000"></path>
                <path d="M16.4571429,18.5619048 C15.2380952,18.5619048 14.0190476,18.5619048 12.8,18.5619048 C12.5714286,17.7238095 12.4190476,16.8857143 12.1142857,16.047619 C11.8095238,14.9809524 11.2,14.1428571 10.5142857,13.3047619 C9.98095238,12.6190476 9.6,11.8571429 9.44761905,11.0190476 C8.91428571,8.12380952 10.8190476,5.3047619 13.7904762,4.84761905 C16.6095238,4.39047619 19.352381,6.37142857 19.7333333,9.19047619 C19.9619048,10.6380952 19.6571429,11.9333333 18.7428571,13.152381 C17.9809524,14.1428571 17.2952381,15.1333333 16.9142857,16.352381 C16.8380952,17.0380952 16.6857143,17.8 16.4571429,18.5619048 Z" id="Path" fill="#FFFFFF"></path>
                <path d="M12.8,20.7714286 C14.0190476,20.7714286 15.2380952,20.7714286 16.4571429,20.7714286 C16.4571429,21.152381 16.5333333,21.4571429 16.4571429,21.8380952 C16.3809524,22.2952381 16.0761905,22.6 15.6190476,22.6 C15.0095238,22.6 14.4,22.6 13.7904762,22.6 C13.2571429,22.6 12.8761905,22.2190476 12.8761905,21.6857143 C12.8,21.3809524 12.8,21.0761905 12.8,20.7714286 Z" id="Path" fill="#FFFFFF"></path>
                <path d="M14.6285714,2.56190476 L14.3238095,4.77142857 C16.9904762,4.77142857 19.352381,6.52380952 19.7333333,9.19047619 C19.8095238,9.87619048 19.8095238,11.8571429 18.8190476,13.0761905 C17.9809524,14.0666667 17.2952381,15.2095238 16.9142857,16.5047619 C16.6857143,17.2666667 16.6095238,17.8 16.3809524,18.6380952 C15.7714286,18.6380952 15.0857143,18.6380952 14.4761905,18.6380952 L14.4761905,20.847619 C15.0857143,20.847619 15.7714286,20.847619 16.3809524,20.847619 C16.3809524,21.2285714 16.4571429,21.5333333 16.3809524,21.9142857 C16.3047619,22.3714286 16,22.6761905 15.5428571,22.6761905 C15.2380952,22.6761905 14.6285714,22.752381 14.3238095,22.752381 L14.6285714,26.3333333 C15.6190476,26.3333333 16.4571429,25.5714286 16.4571429,24.5809524 C16.4571429,24.4285714 16.5333333,24.352381 16.6857143,24.2761905 C17.752381,23.7428571 18.2857143,22.9047619 18.2857143,21.7619048 C18.2857143,21.0761905 18.2857143,20.3904762 18.2857143,19.7047619 C18.2857143,18.1809524 18.7428571,16.8095238 19.6571429,15.5142857 C19.9619048,15.0571429 20.2666667,14.6 20.5714286,14.2190476 C21.7142857,12.5428571 22.0952381,10.7142857 21.7904762,8.73333333 C21.2571429,5 18.1333333,2.56190476 14.6285714,2.56190476 Z" id="Path" fill="#000000"></path>
                <g id="Group" transform="translate(0.000000, 0.047619)">
                    <path d="M3.2,11.7333333 L1.14285714,11.7333333 C0.60952381,11.7333333 0.152380952,11.2761905 0.152380952,10.7428571 C0.152380952,10.2095238 0.60952381,9.75238095 1.14285714,9.75238095 L3.2,9.75238095 C3.73333333,9.75238095 4.19047619,10.2095238 4.19047619,10.7428571 C4.19047619,11.2761905 3.73333333,11.7333333 3.2,11.7333333 Z" id="Path" fill="#000000"></path>
                    <path d="M2.20952381,0.380952381 C2.59047619,0 3.2,0 3.65714286,0.380952381 L5.1047619,1.9047619 C5.48571429,2.28571429 5.48571429,2.8952381 5.1047619,3.27619048 C4.72380952,3.65714286 4.11428571,3.65714286 3.73333333,3.27619048 L2.28571429,1.82857143 C1.82857143,1.37142857 1.82857143,0.761904762 2.20952381,0.380952381 Z" id="Path" fill="#000000"></path>
                    <path d="M5.18095238,19.5047619 L3.73333333,20.952381 C3.35238095,21.3333333 2.74285714,21.3333333 2.36190476,20.952381 C1.98095238,20.5714286 1.98095238,19.9619048 2.36190476,19.5809524 L3.80952381,18.1333333 C4.19047619,17.752381 4.8,17.752381 5.18095238,18.1333333 C5.56190476,18.5142857 5.56190476,19.1238095 5.18095238,19.5047619 Z" id="Path" fill="#000000"></path>
                    <path d="M25.1428571,10.6666667 C25.1428571,11.2 25.6,11.6571429 26.1333333,11.6571429 L28.2666667,11.6571429 C28.8,11.6571429 29.2571429,11.2 29.2571429,10.6666667 C29.2571429,10.1333333 28.8,9.67619048 28.2666667,9.67619048 L26.1333333,9.67619048 C25.6,9.67619048 25.1428571,10.1333333 25.1428571,10.6666667 Z" id="Path" fill="#E30613"></path>
                    <path d="M27.047619,0.380952381 C26.6666667,0 26.0571429,0 25.6761905,0.380952381 L24.152381,1.9047619 C23.7714286,2.28571429 23.7714286,2.8952381 24.152381,3.27619048 C24.5333333,3.65714286 25.1428571,3.65714286 25.5238095,3.27619048 L27.047619,1.75238095 C27.4285714,1.37142857 27.4285714,0.761904762 27.047619,0.380952381 Z" id="Path" fill="#E30613"></path>
                    <path d="M24.152381,19.5047619 L25.6,21.0285714 C25.9809524,21.4095238 26.5904762,21.4095238 26.9714286,21.0285714 C27.352381,20.647619 27.352381,20.0380952 26.9714286,19.6571429 L25.447619,18.2095238 C25.0666667,17.8285714 24.4571429,17.8285714 24.0761905,18.2095238 C23.7714286,18.5142857 23.7714286,19.1238095 24.152381,19.5047619 Z" id="Path" fill="#E30613"></path>
                </g>
                <path d="M16.4571429,18.5619048 C16.6095238,17.8 16.7619048,17.0380952 16.9904762,16.2761905 C17.3714286,15.0571429 18.0571429,14.0666667 18.8190476,13.0761905 C19.7333333,11.9333333 19.9619048,10.5619048 19.8095238,9.11428571 C19.4285714,6.52380952 17.2190476,4.6952381 14.7047619,4.6952381 L14.7047619,18.5619048 C15.2380952,18.5619048 15.847619,18.5619048 16.4571429,18.5619048 Z" id="Path" fill="#E30613"></path>
            </g>
        </g>
    </g>
</svg>