<?xml version="1.0" encoding="UTF-8"?>
<svg width="34px" height="32px" viewBox="0 0 34 32" version="1.1" xmlns="http://www.w3.org/2000/svg" xmlns:xlink="http://www.w3.org/1999/xlink">
    <!-- Generator: Sketch 52.2 (67145) - http://www.bohemiancoding.com/sketch -->
    <title>Artboard</title>
    <desc>Created with Sketch.</desc>
    <g id="Page-1" stroke="none" stroke-width="1" fill="none" fill-rule="evenodd">
        <g id="Artboard">
            <g id="peace" transform="translate(0.000000, 1.000000)">
                <path d="M33.7733333,30.5244444 C32.1866667,30.5244444 30.6,30.5244444 29.0133333,30.5244444 C28.1066667,30.5244444 27.2755556,30.5244444 26.3688889,30.5244444 C26.1422222,30.5244444 25.9911111,30.4488889 25.84,30.2222222 C24.9333333,28.7866667 23.7244444,27.7288889 21.9866667,27.3511111 C21.2311111,27.2 20.4755556,27.1244444 19.72,27.1244444 C18.1333333,27.1244444 16.4711111,27.1244444 14.8844444,27.1244444 C13.7511111,27.1244444 12.6177778,26.8222222 11.56,26.3688889 C10.6533333,25.9911111 9.59555556,25.7644444 8.61333333,25.4622222 C6.8,24.9333333 5.06222222,24.48 3.24888889,23.9511111 C2.41777778,23.7244444 1.58666667,23.3466667 0.755555556,23.0444444 C0.377777778,22.8933333 0.302222222,22.2888889 0.528888889,21.9866667 C0.831111111,21.6088889 1.13333333,21.3822222 1.58666667,21.3822222 C1.88888889,21.3066667 2.19111111,21.2311111 2.49333333,21.1555556 C2.79555556,21.08 3.17333333,21.0044444 3.47555556,21.08 C5.06222222,21.3066667 6.64888889,21.5333333 8.16,21.76 C9.36888889,21.9111111 10.5777778,22.1377778 11.7866667,22.2888889 C12.24,22.3644444 12.7688889,22.3644444 13.2222222,22.3644444 C13.2222222,22.2888889 13.2222222,22.2888889 13.2222222,22.2133333 C13.1466667,22.2133333 12.9955556,22.1377778 12.92,22.1377778 C12.0888889,22.0622222 11.4088889,21.76 10.8044444,21.2311111 C10.4266667,20.9288889 10.4266667,20.8533333 10.8044444,20.5511111 C11.1822222,20.2488889 11.6355556,20.1733333 12.0888889,20.1733333 C13.3733333,20.1733333 14.7333333,20.2488889 16.0177778,20.6266667 C17.2266667,21.0044444 18.4355556,20.8533333 19.5688889,20.4 C20.7022222,19.9466667 21.9111111,19.6444444 23.1955556,20.0222222 C23.8,20.1733333 24.4044444,20.4755556 24.9333333,20.7777778 C27.4266667,22.2888889 29.3911111,24.3288889 31.0533333,26.5955556 C31.7333333,27.5022222 32.4888889,28.2577778 33.2444444,29.0133333 C33.7733333,29.5422222 33.8488889,29.92 33.7733333,30.5244444 Z" id="Path" fill="#000000"></path>
                <path d="M19.3422222,19.4177778 C21.08,17.3777778 21.76,16.2444444 21.8355556,15.64 C21.5333333,15.9422222 21.08,16.32 20.6266667,16.6977778 C19.4933333,17.7555556 18.1333333,18.5866667 16.6977778,19.1155556 C16.5466667,19.1911111 16.3955556,19.1155556 16.2444444,19.1155556 C15.0355556,19.04 13.8266667,18.8888889 12.6933333,18.8888889 C11.6355556,18.8888889 10.7288889,19.2666667 10.1244444,20.2488889 C10.1244444,20.2488889 10.0488889,20.2488889 10.0488889,20.2488889 C9.67111111,19.6444444 9.06666667,19.2666667 8.38666667,19.04 C6.72444444,18.4355556 5.28888889,17.4533333 4.08,16.0933333 C4.00444444,16.0177778 4.00444444,16.0177778 3.92888889,16.0177778 C4.60888889,17.8311111 5.81777778,19.1911111 7.40444444,20.4 C7.17777778,20.4 7.10222222,20.4 6.95111111,20.4 C6.19555556,20.3244444 5.36444444,20.1733333 4.60888889,20.0977778 C4.45777778,20.0977778 4.30666667,20.0222222 4.23111111,19.8711111 C0.68,15.8666667 0.453333333,9.52 3.77777778,5.21333333 C4.45777778,4.30666667 5.28888889,3.4 6.19555556,2.72 C7.63111111,1.66222222 9.29333333,0.982222222 11.0311111,0.68 C13.1466667,0.377777778 15.1866667,0.604444444 17.1511111,1.43555556 C19.9466667,2.64444444 21.9866667,4.68444444 23.1955556,7.55555556 C24.5555556,10.7288889 24.48,13.9022222 23.12,17 C23.12,17.0755556 23.0444444,17.1511111 23.0444444,17.1511111 C22.6666667,18.0577778 22.2133333,18.8133333 21.08,18.8888889 C20.6266667,18.8888889 20.2488889,19.1911111 19.7955556,19.3422222 C19.72,19.3422222 19.5688889,19.3422222 19.3422222,19.4177778 Z M9.06666667,8.08444444 C8.68888889,9.06666667 8.38666667,10.88 8.46222222,11.9377778 C8.46222222,12.0888889 8.61333333,12.24 8.68888889,12.24 C11.4844444,13.3733333 14.28,13.3733333 17,12.1644444 C17.0755556,12.0888889 17.2266667,11.9377778 17.2266667,11.8622222 C17.2266667,11.3333333 17.2266667,10.88 17.1511111,10.4266667 C17,9.59555556 16.8488889,8.84 16.6977778,7.93333333 C14.0533333,9.59555556 11.56,9.59555556 9.06666667,8.08444444 Z M17.1511111,13.5244444 C17.0755556,13.5244444 17.0755556,13.4488889 17,13.4488889 C14.2044444,14.5066667 11.4088889,14.5822222 8.61333333,13.5244444 C8.61333333,13.6 8.53777778,13.6 8.53777778,13.6 C8.76444444,15.2622222 9.29333333,16.7733333 10.1244444,18.1333333 C10.2,18.2088889 10.2755556,18.2844444 10.4266667,18.2844444 C12.0133333,18.5866667 13.5244444,18.6622222 15.1111111,18.2088889 C15.2622222,18.1333333 15.4888889,18.0577778 15.5644444,17.9066667 C15.8666667,17.3022222 16.2444444,16.6977778 16.4711111,16.0177778 C16.6977778,15.1866667 16.9244444,14.3555556 17.1511111,13.5244444 Z M16.0177778,6.64888889 C15.1111111,4.83555556 13.6755556,3.24888889 12.7688889,2.72 C11.4844444,3.62666667 10.0488889,5.44 9.52,6.8 C11.2577778,8.31111111 14.28,8.23555556 16.0177778,6.64888889 Z M8.38666667,17.6044444 C7.70666667,16.1688889 7.40444444,14.6577778 7.17777778,13.0711111 C7.17777778,12.92 7.02666667,12.7688889 6.87555556,12.6933333 C5.59111111,11.9377778 4.53333333,10.9555556 3.62666667,9.74666667 C3.55111111,9.67111111 3.55111111,9.67111111 3.4,9.52 C3.32444444,10.0488889 3.24888889,10.5777778 3.09777778,11.0311111 C2.94666667,11.7866667 3.09777778,12.5422222 3.47555556,13.2222222 C3.92888889,13.9777778 4.45777778,14.7333333 4.98666667,15.3377778 C5.96888889,16.32 7.10222222,17.0755556 8.38666667,17.6044444 Z M17.3777778,17.4533333 C17.3777778,17.4533333 17.3777778,17.4533333 17.3777778,17.4533333 C19.5688889,16.3955556 21.1555556,14.7333333 22.0622222,12.5422222 C22.2133333,12.1644444 22.3644444,11.7866667 22.3644444,11.4088889 C22.3644444,10.7288889 22.2133333,10.0488889 22.0622222,9.36888889 C21.9111111,9.44444444 21.8355556,9.59555556 21.76,9.67111111 C21.08,10.5777778 20.3244444,11.4844444 19.4177778,12.0888889 C18.6622222,12.5422222 18.36,13.0711111 18.2844444,13.9777778 C18.1333333,15.1111111 17.68,16.2444444 17.3777778,17.4533333 Z M6.34666667,4.76 C5.36444444,5.59111111 4.60888889,6.72444444 4.00444444,7.93333333 C3.92888889,8.00888889 4.00444444,8.23555556 4.08,8.31111111 C4.45777778,8.84 4.76,9.44444444 5.21333333,9.89777778 C5.74222222,10.5022222 6.42222222,10.9555556 7.02666667,11.56 C7.02666667,11.56 7.10222222,11.4844444 7.10222222,11.4844444 C7.17777778,10.0488889 7.40444444,8.68888889 7.85777778,7.40444444 C7.85777778,7.32888889 7.85777778,7.17777778 7.78222222,7.10222222 C7.32888889,6.27111111 6.87555556,5.51555556 6.34666667,4.76 Z M18.5111111,11.2577778 C19.72,10.4266667 20.7022222,9.36888889 21.3822222,8.00888889 C21.4577778,7.93333333 21.3822222,7.70666667 21.3822222,7.55555556 C21.08,7.02666667 20.7777778,6.49777778 20.4,6.04444444 C19.9466667,5.51555556 19.4933333,4.98666667 18.9644444,4.45777778 C18.7377778,4.98666667 18.5111111,5.44 18.2844444,5.89333333 C18.0577778,6.27111111 17.68,6.57333333 17.6044444,6.95111111 C17.5288889,7.32888889 17.8311111,7.78222222 17.9822222,8.23555556 C18.2088889,9.29333333 18.36,10.2755556 18.5111111,11.2577778 Z M10.88,2.41777778 C9.82222222,2.64444444 8.76444444,3.02222222 7.78222222,3.70222222 C7.70666667,3.77777778 7.63111111,3.92888889 7.70666667,4.00444444 C7.93333333,4.60888889 8.23555556,5.21333333 8.46222222,5.74222222 C9.29333333,4.60888889 10.0488889,3.55111111 10.88,2.41777778 Z M14.7333333,2.41777778 C15.4888889,3.47555556 16.2444444,4.45777778 17.0755556,5.59111111 C17.3777778,4.98666667 17.6044444,4.30666667 17.9066667,3.70222222 C16.7733333,3.09777778 15.7911111,2.64444444 14.7333333,2.41777778 Z" id="Shape" fill="#000000" fill-rule="nonzero"></path>
                <path d="M18.5111111,11.2577778 C19.72,10.4266667 20.7022222,9.36888889 21.3822222,8.00888889 C21.4577778,7.93333333 21.3822222,7.70666667 21.3822222,7.55555556 C21.08,7.02666667 20.7777778,6.49777778 20.4,6.04444444 C19.9466667,5.51555556 19.4933333,4.98666667 18.9644444,4.45777778 C18.7377778,4.98666667 18.5111111,5.44 18.2844444,5.89333333 C18.0577778,6.27111111 17.68,6.57333333 17.6044444,6.95111111 C17.5288889,7.32888889 17.8311111,7.78222222 17.9822222,8.23555556 C18.2088889,9.29333333 18.36,10.2755556 18.5111111,11.2577778 Z" id="Path" fill="#E30613"></path>
            </g>
        </g>
    </g>
</svg>