<?xml version="1.0" encoding="UTF-8"?>
<svg width="34px" height="32px" viewBox="0 0 34 32" version="1.1" xmlns="http://www.w3.org/2000/svg" xmlns:xlink="http://www.w3.org/1999/xlink">
    <!-- Generator: Sketch 52.2 (67145) - http://www.bohemiancoding.com/sketch -->
    <title>Artboard</title>
    <desc>Created with Sketch.</desc>
    <g id="Page-1" stroke="none" stroke-width="1" fill="none" fill-rule="evenodd">
        <g id="Artboard">
            <g id="photo" transform="translate(0.000000, 2.000000)">
                <rect id="Rectangle" fill="#000000" x="2.72" y="2.23428571" width="28.2685714" height="22.0514286"></rect>
                <path d="M2.72,2.42857143 L30.5028571,2.42857143 L30.5028571,16.6114286 C30.5028571,16.6114286 30.5028571,16.6114286 30.5028571,16.6114286 C28.8514286,15.9314286 27.1028571,15.2514286 25.4514286,14.5714286 C25.3542857,14.5714286 25.2571429,14.5714286 25.16,14.5714286 C22.9257143,15.64 20.6914286,16.8057143 18.5542857,17.8742857 C18.4571429,17.8742857 18.4571429,17.9714286 18.36,17.9714286 C15.4457143,13.8914286 12.5314286,9.90857143 9.71428571,5.82857143 L2.81714286,13.8914286 L2.81714286,2.42857143 L2.72,2.42857143 Z M21.8571429,8.45142857 C21.8571429,10.1028571 23.3142857,11.3657143 24.9657143,10.9771429 C26.0342857,10.7828571 26.9085714,9.81142857 27.0057143,8.74285714 C27.2,7.18857143 25.9371429,5.82857143 24.3828571,5.82857143 C23.0228571,5.82857143 21.8571429,6.99428571 21.8571429,8.45142857 Z" id="Shape" fill="#FFFFFF" fill-rule="nonzero"></path>
                <path d="M21.8571429,8.45142857 C21.8571429,6.99428571 23.0228571,5.82857143 24.48,5.82857143 C25.9371429,5.82857143 27.1028571,6.99428571 27.1028571,8.45142857 C27.1028571,9.90857143 25.9371429,11.0742857 24.48,11.0742857 C23.0228571,11.0742857 21.8571429,9.90857143 21.8571429,8.45142857 Z" id="Path" fill="#E30613"></path>
                <path d="M30.6971429,0 L2.52571429,0 C1.06857143,0 0,1.16571429 0,2.52571429 L0,23.9942857 C0,25.4514286 1.16571429,26.52 2.52571429,26.52 L30.6971429,26.52 C32.1542857,26.52 33.2228571,25.3542857 33.2228571,23.9942857 L33.2228571,2.52571429 C33.32,1.06857143 32.1542857,0 30.6971429,0 Z M30.5028571,21.4685714 C30.5028571,22.9257143 29.3371429,23.9942857 27.9771429,23.9942857 L5.34285714,23.9942857 C3.88571429,23.9942857 2.81714286,22.8285714 2.81714286,21.4685714 L2.81714286,5.05142857 C2.81714286,3.59428571 3.98285714,2.52571429 5.34285714,2.52571429 L27.9771429,2.52571429 C29.4342857,2.52571429 30.5028571,3.69142857 30.5028571,5.05142857 L30.5028571,21.4685714 Z" id="Shape" fill="#000000" fill-rule="nonzero"></path>
            </g>
        </g>
    </g>
</svg>