<?xml version="1.0" encoding="UTF-8"?>
<svg width="34px" height="32px" viewBox="0 0 34 32" version="1.1" xmlns="http://www.w3.org/2000/svg" xmlns:xlink="http://www.w3.org/1999/xlink">
    <!-- Generator: Sketch 52.2 (67145) - http://www.bohemiancoding.com/sketch -->
    <title>Artboard</title>
    <desc>Created with Sketch.</desc>
    <g id="Page-1" stroke="none" stroke-width="1" fill="none" fill-rule="evenodd">
        <g id="Artboard">
            <g id="tool-2" transform="translate(1.000000, 0.000000)">
                <path d="M17.7021277,31.387234 C16.4085106,31.387234 15.1148936,31.387234 13.8212766,31.387234 C13.6170213,30.093617 13.412766,28.8680851 13.1404255,27.6425532 C13.1404255,27.506383 13.1404255,27.3702128 13.0723404,27.2340426 C12.8680851,26.6212766 9.87234043,25.5319149 9.39574468,25.8723404 C8.30638298,26.6212766 7.21702128,27.3702128 6.12765957,28.187234 C5.24255319,27.2340426 4.35744681,26.3489362 3.40425532,25.3957447 C4.01702128,24.5106383 4.69787234,23.5574468 5.3787234,22.6042553 C5.44680851,22.4680851 5.58297872,22.3319149 5.65106383,22.1957447 C6.12765957,21.5148936 4.83404255,18.587234 4.01702128,18.4510638 C2.72340426,18.2468085 1.49787234,17.9744681 0.136170213,17.7702128 C0.136170213,16.4765957 0.136170213,15.2510638 0.136170213,13.8893617 C1.42978723,13.6851064 2.72340426,13.412766 3.94893617,13.2085106 C4.08510638,13.2085106 4.2212766,13.2085106 4.35744681,13.1404255 C4.90212766,12.9361702 5.92340426,9.87234043 5.58297872,9.39574468 C4.97021277,8.5106383 4.2893617,7.62553191 3.74468085,6.67234043 C3.60851064,6.46808511 3.67659574,5.92340426 3.81276596,5.71914894 C4.49361702,4.97021277 5.24255319,4.2212766 6.05957447,3.40425532 C7.14893617,4.15319149 8.17021277,4.90212766 9.25957447,5.65106383 C9.66808511,5.99148936 10.0765957,6.05957447 10.4851064,5.71914894 C10.7574468,5.51489362 11.1659574,5.3106383 11.506383,5.24255319 C12.9361702,5.03829787 13.2085106,4.08510638 13.3446809,2.92765957 C13.412766,2.04255319 13.6170213,1.15744681 13.8212766,0.136170213 C14.9787234,0.136170213 16.0680851,0.136170213 17.2255319,0.136170213 C17.4297872,0.136170213 17.7021277,0.544680851 17.7702128,0.74893617 C18.0425532,1.83829787 18.1787234,2.99574468 18.3829787,4.08510638 C18.4510638,4.35744681 18.7914894,4.69787234 19.0638298,4.90212766 C19.3361702,5.10638298 19.7446809,5.10638298 20.0170213,5.24255319 C21.2425532,6.19574468 22.2638298,5.78723404 23.2851064,4.83404255 C23.8978723,4.2893617 24.6468085,3.88085106 25.4638298,3.26808511 C26.2808511,4.08510638 27.0978723,4.90212766 27.8468085,5.78723404 C27.9829787,5.92340426 27.8468085,6.33191489 27.7106383,6.53617021 C27.0978723,7.4893617 26.4170213,8.37446809 25.8042553,9.32765957 C25.6680851,9.6 25.7361702,10.0085106 25.7361702,10.3489362 C25.7361702,10.4851064 25.9404255,10.6212766 25.9404255,10.8255319 C26.1446809,13.0042553 27.7106383,13.2765957 29.4808511,13.412766 C30.093617,13.4808511 30.6382979,13.6170213 31.3191489,13.6851064 C31.3191489,14.9106383 31.3191489,16.2042553 31.3191489,17.5659574 C30.093617,17.7702128 28.8,18.0425532 27.5744681,18.2468085 C27.0297872,18.3148936 26.6212766,18.4510638 26.5531915,19.1319149 C26.5531915,19.2680851 26.4851064,19.4042553 26.4170213,19.4723404 C25.2595745,21.0382979 25.8042553,22.3319149 26.9617021,23.6255319 C27.4382979,24.1021277 27.7106383,24.7148936 28.1191489,25.1914894 C27.1659574,26.0765957 26.2808511,26.9617021 25.3276596,27.9148936 C24.4425532,27.3021277 23.4212766,26.6212766 22.4,25.8723404 C21.8553191,25.4638298 21.4468085,25.3276596 20.9021277,25.7361702 C20.8340426,25.8042553 20.6978723,25.8723404 20.5617021,25.8723404 C18.7234043,26.1446809 18.1787234,27.4382979 18.1106383,29.0723404 C17.9744681,29.9574468 17.8382979,30.6382979 17.7021277,31.387234 Z M24.2382979,15.8638298 C24.306383,11.2340426 20.5617021,7.4212766 15.9319149,7.35319149 C11.1659574,7.28510638 7.35319149,10.9617021 7.28510638,15.7276596 C7.21702128,20.4255319 11.0297872,24.306383 15.7276596,24.306383 C20.4255319,24.3744681 24.1702128,20.6297872 24.2382979,15.8638298 Z" id="Shape" fill="#000000" fill-rule="nonzero"></path>
                <path d="M24.2382979,15.8638298 C24.1702128,20.5617021 20.4255319,24.306383 15.7276596,24.306383 C11.0297872,24.306383 7.21702128,20.4255319 7.28510638,15.7276596 C7.35319149,11.0297872 11.1659574,7.28510638 15.9319149,7.35319149 C20.5617021,7.4212766 24.306383,11.2340426 24.2382979,15.8638298 Z M15.7957447,22.1957447 C19.2680851,22.1957447 22.1276596,19.3361702 22.1957447,15.7957447 C22.1957447,12.3234043 19.2680851,9.39574468 15.7957447,9.46382979 C12.3234043,9.46382979 9.39574468,12.3914894 9.39574468,15.8638298 C9.46382979,19.3361702 12.3234043,22.1957447 15.7957447,22.1957447 Z" id="Shape" fill="#FFFFFF" fill-rule="nonzero"></path>
                <path d="M22.4680851,14.7744681 C22.1957447,14.8425532 22.0595745,14.8425532 21.8553191,14.8425532 C21.3106383,14.8425532 20.8340426,14.9787234 20.2893617,15.1829787 C19.1319149,15.6595745 18.3148936,16.4085106 17.6340426,17.4297872 C17.2255319,18.0425532 16.6808511,18.4510638 16,18.587234 C14.9787234,18.7914894 13.9574468,18.4510638 13.2765957,17.4978723 C12.5276596,16.3404255 12.6638298,15.0468085 13.4808511,14.093617 C13.9574468,13.5489362 14.4340426,13.0723404 15.0468085,12.7319149 C15.7957447,12.3234043 16.6808511,12.0510638 17.5659574,12.0510638 C18.2468085,12.0510638 18.8595745,12.1191489 19.4723404,12.3234043 C20.3574468,12.6638298 21.1744681,13.1404255 21.787234,13.9574468 C22.0595745,14.1617021 22.1957447,14.4340426 22.4680851,14.7744681 Z" id="Path" fill="#E30613"></path>
                <path d="M4.83404255,26.7574468 C4.01702128,25.9404255 4.01702128,24.5787234 4.83404255,23.7617021 L9.73617021,18.8595745 C10.5531915,18.0425532 11.9148936,18.0425532 12.7319149,18.8595745 C13.5489362,19.6765957 13.5489362,21.0382979 12.7319149,21.8553191 L7.82978723,26.7574468 C6.94468085,27.5744681 5.65106383,27.5744681 4.83404255,26.7574468 Z" id="Path" fill="#000000"></path>
            </g>
        </g>
    </g>
</svg>