<?xml version="1.0" encoding="UTF-8"?>
<svg width="34px" height="32px" viewBox="0 0 34 32" version="1.1" xmlns="http://www.w3.org/2000/svg" xmlns:xlink="http://www.w3.org/1999/xlink">
    <!-- Generator: Sketch 52.2 (67145) - http://www.bohemiancoding.com/sketch -->
    <title>Artboard</title>
    <desc>Created with Sketch.</desc>
    <g id="Page-1" stroke="none" stroke-width="1" fill="none" fill-rule="evenodd">
        <g id="Artboard">
            <g id="tool-1">
                <path d="M0.0971428571,23.3142857 C0.485714286,23.3142857 0.777142857,23.3142857 1.06857143,23.4114286 C1.94285714,23.6057143 2.81714286,23.5085714 3.69142857,23.4114286 C5.63428571,23.12 7.28571429,22.1485714 8.74285714,20.8857143 C9.61714286,20.1085714 10.6857143,19.6228571 11.7542857,19.72 C13.4057143,19.8171429 14.96,20.6914286 15.64,22.44 C16.4171429,24.5771429 15.64,26.52 13.9885714,27.7828571 C13.0171429,28.4628571 12.0457143,29.0457143 10.9771429,29.3371429 C9.61714286,29.7257143 8.16,29.8228571 6.8,29.4342857 C5.73142857,29.24 4.76,28.8514286 3.88571429,28.2685714 C2.52571429,27.3942857 1.55428571,26.3257143 0.874285714,24.8685714 C0.582857143,24.3828571 0.388571429,23.8971429 0.0971428571,23.3142857 Z" id="Path" fill="#000000"></path>
                <path d="M31.8628571,27.88 C31.5714286,27.4914286 31.28,27.1028571 30.9885714,26.7142857 C30.4057143,25.9371429 29.92,25.16 29.3371429,24.2857143 C29.0457143,23.8971429 28.4628571,23.6057143 28.0742857,23.6057143 C27.2971429,23.6057143 26.4228571,23.7028571 25.6457143,23.7028571 C25.4514286,23.7028571 25.4514286,23.8 25.3542857,23.8971429 C25.0628571,24.5771429 24.6742857,25.3542857 24.3828571,26.0342857 C24.1885714,26.52 24.1885714,27.1028571 24.48,27.5885714 C25.16,28.6571429 25.9371429,29.7257143 26.6171429,30.6971429 C26.7142857,30.7942857 26.8114286,30.8914286 26.9085714,31.0857143 C26.3257143,31.0857143 25.7428571,31.0857143 25.2571429,30.9885714 C24.0914286,30.7942857 23.12,30.3085714 22.2457143,29.6285714 C21.2742857,28.7542857 20.5942857,27.6857143 20.2057143,26.4228571 C19.9142857,25.2571429 19.9142857,23.9942857 20.4,22.8285714 C20.4971429,22.5371429 20.4971429,22.3428571 20.3028571,22.1485714 C19.04,20.8857143 17.7771429,19.6228571 16.5142857,18.36 C15.2514286,17.0971429 13.9885714,15.8342857 12.7257143,14.5714286 C12.3371429,14.1828571 11.9485714,13.6971429 11.4628571,13.3085714 C11.1714286,13.0171429 10.4914286,12.8228571 10.0057143,12.92 C8.84,13.2114286 7.67428571,13.2114286 6.50857143,12.8228571 C5.05142857,12.3371429 3.88571429,11.3657143 3.10857143,10.1028571 C2.23428571,8.64571429 2.04,7.09142857 2.42857143,5.34285714 C2.52571429,4.95428571 2.62285714,4.46857143 2.81714286,4.08 C3.10857143,4.56571429 3.4,4.95428571 3.69142857,5.34285714 C4.27428571,6.12 4.76,6.89714286 5.34285714,7.67428571 C5.63428571,8.06285714 6.21714286,8.35428571 6.70285714,8.25714286 C7.48,8.25714286 8.35428571,8.16 9.13142857,8.06285714 C9.32571429,8.06285714 9.32571429,7.96571429 9.42285714,7.86857143 C9.81142857,6.89714286 10.2,6.02285714 10.5885714,5.05142857 C10.5885714,4.95428571 10.5885714,4.85714286 10.4914286,4.76 C9.61714286,3.49714286 8.64571429,2.23428571 7.77142857,0.874285714 C7.77142857,0.874285714 7.67428571,0.777142857 7.67428571,0.777142857 C7.77142857,0.777142857 7.77142857,0.68 7.77142857,0.68 C10.2,0.291428571 12.3371429,1.16571429 13.9885714,4.56571429 C14.28,5.14857143 14.4742857,5.73142857 14.5714286,6.31428571 C14.6685714,6.89714286 14.6685714,7.38285714 14.4742857,7.96571429 C14.3771429,8.54857143 14.5714286,9.13142857 14.96,9.52 C17.8742857,12.4342857 20.7885714,15.3485714 23.7028571,18.2628571 C24.0914286,18.6514286 24.6742857,18.8457143 25.2571429,18.7485714 C26.3257143,18.5542857 27.3942857,18.6514286 28.4628571,19.1371429 C30.6,20.0114286 31.8628571,21.5657143 32.3485714,23.7028571 C32.7371429,25.0628571 32.5428571,26.6171429 31.8628571,27.88 Z" id="Path" fill="#000000"></path>
                <path d="M32.8342857,2.52571429 C33.8057143,3.49714286 33.8057143,5.14857143 32.8342857,6.12 L25.6457143,13.3085714 C24.6742857,14.28 23.0228571,14.28 22.0514286,13.3085714 C21.08,12.3371429 21.08,10.6857143 22.0514286,9.71428571 L29.24,2.52571429 C30.2114286,1.45714286 31.8628571,1.45714286 32.8342857,2.52571429 Z" id="Path" fill="#E30613"></path>
            </g>
        </g>
    </g>
</svg>