<?xml version="1.0" encoding="UTF-8"?>
<svg width="34px" height="32px" viewBox="0 0 34 32" version="1.1" xmlns="http://www.w3.org/2000/svg" xmlns:xlink="http://www.w3.org/1999/xlink">
    <!-- Generator: Sketch 52.2 (67145) - http://www.bohemiancoding.com/sketch -->
    <title>Artboard</title>
    <desc>Created with Sketch.</desc>
    <g id="Page-1" stroke="none" stroke-width="1" fill="none" fill-rule="evenodd">
        <g id="Artboard">
            <g id="tower" transform="translate(11.000000, 0.000000)">
                <path d="M11.6,19.95 C11.55,19.95 11.5,19.9 11.45,19.85 C11.4,19.8 11.35,19.8 11.3,19.75 C10.95,19.6 10.55,19.4 10.55,19 L10.55,13.5 L10.55,13.2 L10.55,12.9 L10.55,12.6 L10.55,12.3 L10.55,12.2 C10.55,12.05 10.55,11.85 10.55,11.65 C10,7.45 7.7,6.8 7.7,6.8 L7.7,4.9 C8.2,4.5 8.6,4.1 8.6,3.3 C8.6,2.35 5.85,0.2 5.85,0.2 C5.85,0.2 3.1,2.3 3.1,3.3 C3.1,4.15 3.5,4.5 4,4.9 L4,5.85 L4,6.8 L4,7 L3.95,7.05 C2.75,7.65 2.05,8.65 1.65,9.65 L1.65,9.7 L1.65,9.75 C1.15,10.9 1.1,11.9 1.1,11.9 L1.1,12.65 L1.1,13.35 L1.1,14.05 L1.1,14.35 L1.1,19.45 C1.05,19.7 0.85,19.8 0.6,19.9 C0.5,19.95 0.45,20 0.35,20.05 C0.35,20.05 0.35,20.05 0.3,20.05 C0.1,20.2 2.84217094e-14,20.4 2.84217094e-14,20.65 C2.84217094e-14,21.05 0.3,21.35 0.7,21.35 L11.2,21.35 C11.6,21.35 11.9,21.05 11.9,20.65 C11.9,20.3 11.8,20.1 11.6,19.95 Z" id="Path" fill="#000000"></path>
                <path d="M6.05,19.95 L5.85,19.95 C4.85,19.95 4.1,19.15 4.1,18.2 L4.1,16.7 C4.1,15.7 4.9,14.95 5.85,14.95 L6.05,14.95 C7.05,14.95 7.8,15.75 7.8,16.7 L7.8,18.2 C7.8,19.15 7,19.95 6.05,19.95 Z" id="Path" fill="#FFFFFF"></path>
                <path d="M10.6,22.65 L1.3,22.65 C0.7,22.65 0.25,23.15 0.25,23.7 L0.25,30.55 C0.25,31.15 0.75,31.6 1.3,31.6 L2.55,31.6 C3.15,31.6 3.6,31.1 3.6,30.55 L3.6,26.4 L3.6,26.25 C3.6,25.25 4.4,24.5 5.35,24.5 L6.5,24.5 C7.5,24.5 8.25,25.3 8.25,26.25 L8.25,31 C8.4,31.4 8.8,31.65 9.25,31.65 L10.5,31.65 C11.1,31.65 11.55,31.15 11.55,30.6 L11.55,23.75 C11.65,23.15 11.15,22.65 10.6,22.65 Z" id="Path" fill="#000000"></path>
                <circle id="Oval" fill="#FFFFFF" cx="5.95" cy="11.15" r="1.9"></circle>
                <path d="M5.95,10.15 C5.4,10.15 5,10.6 5,11.15 C5,11.7 5.45,12.15 5.95,12.15 C6.5,12.15 6.9,11.7 6.9,11.15 C6.9,10.6 6.45,10.15 5.95,10.15 Z" id="Path" fill="#E30613"></path>
                <path d="M7.25,17.55 C7.25,17.55 7.2,17.55 7.25,17.55 L7.2,17.5 C7.1,17.4 6.95,17.2 6.8,16.8 C6.6,16.15 6.4,15.75 6.05,15.7 C5.85,15.7 5.7,15.7 5.55,15.8 C5.35,15.95 5.25,16.25 5.05,16.75 C4.95,17.15 4.75,17.35 4.65,17.45 L4.6,17.5 C4.6,17.5 4.6,17.5 4.6,17.5 C4.6,17.55 4.55,17.55 4.55,17.6 C4.55,17.7 4.6,17.75 4.7,17.75 C4.7,17.75 4.7,17.75 4.7,17.75 C4.7,17.75 4.7,17.75 4.7,17.75 L7.05,17.75 C7.15,17.75 7.25,17.65 7.25,17.55 C7.25,17.6 7.25,17.6 7.25,17.55 Z" id="Path" fill="#000000"></path>
                <path d="M7.7,27.75 C7.75,27.75 7.7,27.75 7.7,27.75 L7.65,27.7 C7.55,27.55 7.3,27.25 7.1,26.75 C6.8,25.8 6.6,25.3 6.05,25.25 C5.75,25.25 5.55,25.25 5.4,25.4 C5.15,25.6 4.95,26 4.7,26.7 C4.55,27.25 4.3,27.55 4.15,27.7 L4.1,27.75 C4.1,27.75 4.1,27.75 4.1,27.75 C4.05,27.8 4.05,27.85 4.05,27.9 C4.05,28.05 4.15,28.15 4.25,28.15 C4.25,28.15 4.25,28.15 4.25,28.15 C4.25,28.15 4.25,28.15 4.25,28.15 L7.45,28.15 C7.6,28.15 7.7,28.05 7.7,27.9 C7.8,27.85 7.75,27.8 7.7,27.75 Z" id="Path" fill="#000000"></path>
            </g>
        </g>
    </g>
</svg>